<?xml version="1.0" encoding="utf-8"?>
<!-- Generator: Adobe Illustrator 24.0.1, SVG Export Plug-In . SVG Version: 6.00 Build 0)  -->
<svg version="1.1" id="Layer_1" xmlns="http://www.w3.org/2000/svg" xmlns:xlink="http://www.w3.org/1999/xlink" x="0px" y="0px"
	 viewBox="0 0 40 40" style="enable-background:new 0 0 40 40;" xml:space="preserve">
<title></title>
<g id="Discord">
	<path d="M33.4,0H6.6C4.3,0,2.5,1.9,2.5,4.1c0,0,0,0,0,0v26.7c0,2.3,1.8,4.1,4.1,4.1c0,0,0,0,0,0h22.7l-1-3.7l2.6,2.7l2.4,2.2
		l4.3,3.8V4.1C37.5,1.9,35.7,0,33.4,0C33.4,0,33.4,0,33.4,0z M25.7,26.1c0,0-0.7-0.9-1.3-1.6c1.4-0.3,2.7-1.2,3.6-2.4
		c-0.7,0.5-1.5,0.9-2.3,1.2c-0.9,0.4-1.9,0.7-2.9,0.9c-1.7,0.3-3.5,0.3-5.2,0c-1-0.2-2-0.5-2.9-0.9c-0.5-0.2-1-0.4-1.5-0.7L13,22.5
		h-0.1c-0.4-0.2-0.6-0.3-0.6-0.3c0.9,1.2,2.1,2,3.5,2.4l-1.3,1.7c-2.4,0.1-4.7-1.1-6.1-3c0.1-4.1,1.1-8,2.9-11.7
		c1.6-1.3,3.6-2,5.6-2.1l0.2,0.2c-1.9,0.5-3.7,1.4-5.3,2.6c0,0,0.4-0.2,1.2-0.6c1.4-0.7,3-1.1,4.5-1.3H18c1.3-0.2,2.7-0.2,4,0
		c2.1,0.2,4.2,0.9,6,1.9c-1.5-1.2-3.2-2.1-5-2.5l0.3-0.3c2,0.1,4,0.8,5.6,2.1c1.8,3.6,2.8,7.6,2.9,11.7
		C30.4,25.2,28.1,26.2,25.7,26.1z"/>
	<ellipse cx="23.7" cy="19" rx="2" ry="2.2"/>
	<path d="M16.4,16.8c-1.2-0.1-2.3,0.8-2.4,2c-0.1,1.2,0.8,2.3,2,2.4c1.2,0.1,2.3-0.8,2.4-2c0-0.1,0-0.2,0-0.2
		C18.4,17.8,17.5,16.8,16.4,16.8z"/>
</g>
</svg>
