<?xml version="1.0" encoding="utf-8"?>
<!-- Generator: Adobe Illustrator 24.0.1, SVG Export Plug-In . SVG Version: 6.00 Build 0)  -->
<svg version="1.1" id="Layer_1" xmlns:xodm="http://www.corel.com/coreldraw/odm/2003"
	 xmlns="http://www.w3.org/2000/svg" xmlns:xlink="http://www.w3.org/1999/xlink" x="0px" y="0px" viewBox="0 0 675 240"
	 style="enable-background:new 0 0 675 240;" xml:space="preserve">
<style type="text/css">
	.st0{fill-rule:evenodd;clip-rule:evenodd;fill:#FFFFFF;}
	.st1{fill-rule:evenodd;clip-rule:evenodd;fill:#FF0000;}
	.st2{fill-rule:evenodd;clip-rule:evenodd;fill:#0000FF;}
	.st3{fill-rule:evenodd;clip-rule:evenodd;fill:#F9CD09;}
	.st4{fill-rule:evenodd;clip-rule:evenodd;fill:#E6252D;}
	.st5{fill:#FF0000;}
</style>
<polygon class="st0" points="538.6,21.5 337.5,21.5 136.4,21.5 14.5,80.3 14.5,159.9 81.5,210 337.5,221.5 593.5,210 660.5,159.9 
	660.5,80.3 "/>
<g id="Layer_x0020_1">
	<path class="st1" d="M30.2,15h614.6c8.6,0,15.7,7.2,15.7,16v49.3h-76.9C579.6,35.6,377,26.1,342,25.9
		C285.6,25.4,91.2,38.7,91.2,79.4v0.9H14.5V31C14.5,22.2,21.5,15,30.2,15L30.2,15z"/>
	<path class="st2" d="M91.2,153.2H14.5V87h76.7C91.1,107.7,90.9,133.2,91.2,153.2z M660.5,87v66.3h-76.7c0.6-20.7-0.7-45.4-0.3-66.3
		H660.5z"/>
	<path class="st3" d="M660.5,159.9V209c0,8.8-7.1,16-15.7,16H30.2c-8.6,0-15.7-7.2-15.7-16v-49.1h77.2
		c9.5,40.1,168.7,55.9,248.3,56.3c44.9,0.2,231.6-14,243.1-56.3H660.5L660.5,159.9z"/>
	<path class="st4" d="M341,37.6C384.8,38,572.2,57,570.5,80.7c-1.4,19.8,1.5,58.3,0,78.2c-1.7,23-187,43.1-230.6,42.7
		c-47-0.4-234.7-15.9-235.4-44.9c-0.5-19.9,0-54,0-73.9C104.4,53.3,293.3,37.1,341,37.6z M340.8,55.7L340.8,55.7
		c-45.1-0.3-223.4,10.5-223.4,33.5c0,15.5-0.5,46.1,0,61.6c0.7,23.1,177.9,32.3,222.3,32.6c41.2,0.3,216.1-13.1,217.7-31
		c1.4-15.5-1.4-48.9,0-64.4C559.1,69.7,382.2,56,340.8,55.7L340.8,55.7z"/>
	<path class="st2" d="M266.4,122.1c2.3,1,1.9,6.6-1,12.4c-2.8,5.8-7,9.7-9.3,8.6c-2.3-1-1.9-6.6,1-12.4
		C259.9,125,264.1,121.1,266.4,122.1z M422.3,122.6L422.3,122.6c2.3,1,1.9,6.6-1,12.4c-2.8,5.8-7,9.7-9.3,8.6c-2.3-1-1.9-6.6,1-12.4
		C415.8,125.5,420,121.6,422.3,122.6z M498.8,121L498.8,121c1.2,0.9,0.1,4.6-2.5,8.1c-2.6,3.5-5.8,5.6-7.1,4.6
		c-1.3-0.9-0.1-4.6,2.5-8.1C494.4,122.1,497.6,120.1,498.8,121L498.8,121z M500.4,113.5L500.4,113.5c-8.8-0.7-14.6,5.4-17.7,11.4
		c-2.4,4.8-3.2,11.6-1.4,17.3c-2.5,2-5.7,3.8-10.7,4.8c-2.5,0.5-3.8-1.4-3.8-3.1c0.1-5,0.6-9.1,2-13.8c0.6-1.9,2.6-1.3,3.2-2.9
		c1.4-3.4,1.6-6.6-2.9-6.1c-2.9,0.3-6,0.8-6.1-3.1c-0.1-3.8,4.5-5.8,3.8-6.1c-2.6-1.2-4.7,0-7.4-1c-0.7-0.3-0.1-2-0.9-2.2
		c-1-0.3-2.8,0.7-3.4,1.6c-1.3,2-1.2,3.8-2.1,6.1c-0.8,2-0.9,4.1-1.3,6.2c-1.4,4.1-10.2,16.7-16.7,20c-3.6,1.8-5.9,0.2-4.8-3.6
		c1.5-5.1,6.5-17.4,9.7-26.1c-3.2,0.1-6,0.3-9.2,0.4c-0.4,1.1-0.9,1.9-1.3,3c-7.1-4.6-11.4-2.8-17.9,1.8c-4.8,3.5-9,8.7-11.3,15
		c-0.9,2.5-1.4,5-1.5,7.4c-3.9,1.4-7.8,3.5-11.3,3c-0.8-0.1-1.4-1.4-1.2-2.3c1.2-5.1,3.6-9.7,5.2-14.7c1-3.1,2.9-6.3,2.3-9.5
		c-0.8-4.3-6.3-4.5-9.3-2.9c-2.5,1.3-4.5,3.6-7,5c-0.5,0.3-1.2,0-1.7-0.4c-1.1-1-1.6-2.5-2.7-3.5c-0.9-0.9-2-1.8-3.3-2.1
		c-1.6-0.3-3.3-0.2-4.8,0.4c-3.1,1.3-5.3,4.8-8.7,5.2c-1.5,0.1-0.5-3-1.4-4.1c-2.2-2.7-4.4-1.8-7.1-0.6c-5.4,2.4-10.8,4.9-16.2,7.3
		c0.5,1.1,1,2.2,1.4,3.4c2.1-0.7,4.4-1.7,6.6-2.2c1-0.2,2.2-0.8,3.1-0.2c0.8,0.5,1.1,1.8,0.8,2.7c-2.9,9.5-6.9,18.7-10.4,28
		c3.6-0.1,7.2-0.1,10.8-0.2c3.2-8.4,5.5-17.2,9.7-25.1c0.8-1.4,3-2,4.6-1.7c1.1,0.2,1.5,1.8,1.7,2.9c0.2,1.4,0,2.8-0.4,4.1
		c-2.3,6.7-5.1,13.1-7.7,19.7c3.9-0.1,8.1,0.3,12,0.2c3.8-8.7,5.3-17.6,10-25.9c0.6-1,3.6-1.4,4.8-1c0.8,0.2,1.6,1.1,1.5,1.9
		c-1,4.7-3.6,8.9-4.8,13.5c-0.6,2.1-1,4.5-0.4,6.6c0.5,1.8,1.9,3.5,3.5,4.3c1.4,0.7,3.3,0.4,4.8-0.2c5.6-2.3,10.8-5.5,16.1-8.3
		c0.9,6,5.2,10.1,13.5,8.3c2.9-0.6,4.4-2.5,7.1-3.8c1.3,4.3,4.3,6.1,9.1,4.1c11.8-4.8,18.7-13.2,27.4-25.8c1.4,0.3,4.2-0.5,5.6-0.5
		c-1.5,4.5-10.8,20.7-1.1,25.6c2.7,1.4,4.8,0.9,7.8,0.4c6.7-1.2,10.8-4.1,14.1-6.7c1.6,3.2,4.3,5.8,8.1,6.9
		c7.7,2.4,16.5-1.7,22.1-4.1c2.9,5.1,10.5,6,15,4.4c4.7-1.7,8.9-4.7,12.6-8c0.8-0.7,0.7-2.4-0.1-3.1c-0.7-0.6-1.9,0.5-2.7,1.1
		c-3.2,2.4-9.7,8.5-13.3,3.4c-1.6-2.3-0.5-6.1,1.1-10.5c1.6-4.3,3.1-9.8,4.6-14.1c2.2-0.2,4.7,0,6.9-0.1c0.9-2.7,1.4-4.8,2.3-7.5
		c-1.5-0.1-3.5,0-5-0.1c1.4-7.2,4.3-14.5,6.8-21.6c-3.4,0.1-6.2,0.3-9.6,0.3c-2.4,7-4.2,13.8-7.5,20.8c-2.2,0.1-4.6,0.3-6.8,0.3
		c-0.6,2.6-1.2,5.2-1.8,7.8c1.7-0.1,4.1-0.1,5.8-0.2c-2.1,8.2-4.5,15.5-9.3,21.9c-1.7,2.2-4.6,3.5-7.4,4.1c-8.5,1.7-11.7-1-13.1-4.8
		c3.6-3,7.1-4.4,10.3-7.8C506.7,128.8,513.1,114.5,500.4,113.5L500.4,113.5z M206.4,81.7L206.4,81.7c-13.4,1.5-33.3,3-44.7,10.5
		C155,96.6,149,105,155,113.6c5.9,8.4,16.3,4.8,20.6-0.7c-4.9-0.6-8.7-1.5-9-5c-1.4-15.8,13.1-12.5,26.9-17
		c-7.2,17-13.7,47.3-32,51.1c-13.3,2.7-19.4-3.2-22.6-11.5c-7.4,14.2,3.2,20.7,12.7,22.2c8.8,1.4,20-4.1,26.2-10.6
		c4.4-2.9,8.8-6.1,12.7-9.8c1-1,15.6-12.2,14.3-2.9c-1.2,8.1-4.4,14.1-6.8,22c3.6,0.1,7.2,0.1,10.8,0.2c2.6-7.8,4.6-15.9,7.9-23.4
		c0.6-1.3,2.1-2.3,3.5-2.5c1.3-0.2,3.2,0.2,3.7,1.4c0.8,2.2-0.4,5-1,7.2c-1,3.7-6.6,15.8,0.7,16.7c7.1,0.9,15.1-4.2,19.4-7.6
		c0.6,3.6,2.5,6.7,6.3,8.5c2.6,1.2,5.8,0.4,8.6-0.2c2.3-0.5,4.2-2.1,6.2-3.2c-0.4,5.2,4.6,4.6,7.9,3c7.5-3.6,11.7-6.1,16.9-7.8
		c-0.5-0.9-1-1.9-1.4-2.9c-3.7,0.9-7.3,2.7-11.1,2.4c-1.3-0.1-1.6-2.4-1.2-3.6c5.3-15.9,12.1-31.3,18.1-47c-3.1,0.2-5.6,0.2-8.7,0.4
		c-2.5,6.7-5.7,13.6-8.2,20.3c-11.8-2.2-22.8,1.1-30.5,15.9c-1.6,3.1-2.8,6.8-3,10.4c-2.7,1.8-5.2,3.6-8.3,4.3
		c-1.2,0.3-2.1-1.5-1.9-2.7c0.7-4,2.1-7.7,3.4-11.6c0.9-2.6,4.3-10.1,3-12.7c-2.2-4.4-5.3-4.4-8.5-3.1c-4.1,1.7-8.3,5.5-10.6,4.7
		c-3.3-1.1-2.3-6.2-7.3-5.6c-1.6,0.2-3.1,0.8-4.5,1.5c-7,3.5-13.7,8.5-20.5,12.7C194.1,114.7,200.2,98.1,206.4,81.7L206.4,81.7z"/>
	<path class="st5" d="M309.8,107.4L309.8,107.4c6.7,0,12.7,2.7,17.1,7.1l0,0c4.4,4.4,7.1,10.4,7.1,17.1l0,0c0,6.7-2.7,12.7-7.1,17.1
		l0,0c-4.4,4.4-10.4,7.1-17.1,7.1l0,0c-6.7,0-12.7-2.7-17.1-7.1c-4.4-4.4-7.1-10.4-7.1-17.1l0,0c0-6.7,2.7-12.7,7.1-17.1
		C297.1,110.2,303.2,107.4,309.8,107.4L309.8,107.4L309.8,107.4z M309.9,110.4L309.9,110.4c-5.9,0-11.2,2.4-15,6.2
		c-3.8,3.8-6.2,9.2-6.2,15l0,0c0,5.8,2.4,11.2,6.2,15c3.8,3.8,9.2,6.2,15,6.2l0,0c5.9,0,11.2-2.4,15-6.2l0,0c3.9-3.8,6.2-9.2,6.2-15
		l0,0c0-5.8-2.4-11.2-6.2-15l0,0C321,112.8,315.7,110.4,309.9,110.4L309.9,110.4z"/>
	<path class="st1" d="M309.8,113.3c10.1,0,18.3,8.2,18.3,18.3s-8.2,18.3-18.3,18.3s-18.3-8.2-18.3-18.3S299.7,113.3,309.8,113.3z
		 M309.8,117.1c8,0,14.6,6.5,14.6,14.6c0,8-6.5,14.6-14.6,14.6c-8,0-14.5-6.5-14.5-14.6S301.8,117.1,309.8,117.1z"/>
	<path class="st1" d="M309.8,120.7c6.1,0,11,4.9,11,11c0,6.1-4.9,11-11,11s-11-4.9-11-11S303.8,120.7,309.8,120.7z"/>
</g>
</svg>
