<?xml version="1.0" encoding="utf-8"?>
<!-- Generator: Adobe Illustrator 24.0.1, SVG Export Plug-In . SVG Version: 6.00 Build 0)  -->
<svg version="1.1" id="Layer_1" xmlns="http://www.w3.org/2000/svg" xmlns:xlink="http://www.w3.org/1999/xlink" x="0px" y="0px"
	 viewBox="0 0 1280 1280" style="enable-background:new 0 0 1280 1280;" xml:space="preserve">
<g transform="translate(0.000000,1280.000000) scale(0.100000,-0.100000)">
	<path d="M6095,12794c-952-56-1765-271-2575-679C1756,11225,502,9574,121,7640C36,7210,6,6883,6,6400c0-402,11-570,60-910
		c223-1562,1012-2977,2228-3997C3244,696,4411,191,5640,46c281-33,416-41,760-41c359,0,485,7,795,46c2119,261,3975,1576,4933,3494
		c306,613,508,1261,606,1945c49,339,60,508,60,905c0,398-12,583-60,915c-401,2808-2618,5025-5424,5425c-298,42-488,56-830,59
		C6301,12796,6128,12796,6095,12794z M6818,12083c322-339,466-501,659-739c427-530,802-1108,1075-1664c82-166,208-443,203-448
		c-9-9-259-81-445-127c-293-74-513-117-840-165c-150-22-358-42-677-65l-83-5v1650c0,1304,3,1650,12,1650
		C6729,12170,6772,12131,6818,12083z M6090,10500V8869l-72,6c-40,3-138,10-218,15c-300,22-624,67-945,131c-264,53-745,179-745,195
		c0,3,34,82,76,177c356,802,850,1568,1473,2284c145,166,412,453,423,453C6086,12130,6090,11396,6090,10500z M5134,12028
		c-5-7-42-53-84-103c-594-702-1114-1533-1455-2326c-40-94-76-173-79-176c-14-14-585,249-828,382c-279,153-638,375-638,395
		s496,508,625,614c640,530,1305,890,2069,1121c69,20,378,103,394,105C5140,12040,5138,12034,5134,12028z M7860,11989
		c907-241,1699-668,2394-1288c133-120,468-458,487-492c8-16-5-28-105-93c-246-160-559-336-831-467c-183-88-432-199-449-199
		c-6,0-40,66-76,148c-329,752-800,1509-1374,2206c-72,87-141,172-154,187c-13,16-20,29-15,29C7741,12020,7797,12006,7860,11989z
		 M2067,9441c333-200,660-366,1024-521c107-46,198-86,202-90s-3-42-17-86c-103-332-201-741-255-1074c-43-260-91-705-91-838
		c0-33-3-74-6-91l-7-31l-1141,2l-1141,3l3,60c23,482,138,1045,319,1560c154,437,422,967,659,1302l44,62l130-84
		C1861,9568,1986,9490,2067,9441z M11223,9577c329-501,570-1027,737-1609c93-326,173-772,195-1088c3-47,8-104,11-127l5-43h-1104
		H9963l-7,128c-33,588-150,1239-327,1817c-28,94-52,178-53,188c-1,14,40,35,183,97c389,169,799,387,1162,618c96,61,183,117,194,125
		c11,9,23,13,27,11C11147,9691,11183,9639,11223,9577z M9001,8575c164-517,265-1015,313-1540c8-88,16-196,18-240l3-80l-1312-3
		l-1313-2v768v768l198,12c635,38,1347,165,1917,341c72,22,136,39,144,38C8976,8636,8991,8608,9001,8575z M4052,8576
		c591-172,1225-281,1841-318l197-12v-768v-768H4820H3550v44c0,73,29,400,51,566c41,313,109,656,190,956c47,176,98,344,104,344
		C3897,8620,3968,8600,4052,8576z M2924,6068c3-13,6-50,6-83c0-84,26-369,50-560c62-480,180-1003,330-1458c27-83,46-155,42-158
		c-4-4-63-30-132-57c-411-164-877-403-1303-670c-93-57-172-101-176-96c-22,24-157,222-219,321c-400,633-668,1317-801,2043
		c-33,176-66,430-76,570c-3,47-8,104-11,128l-5,42h1144h1145L2924,6068z M6090,5231v-859l-97-6c-602-39-995-94-1506-211
		c-141-33-514-132-528-141c-7-4-84,228-138,416c-141,494-235,1037-267,1553l-7,107h1272h1271V5231z M9335,6018
		c-22-289-29-365-51-538c-44-338-115-687-205-1010c-52-182-148-480-155-480c-2,0-55,15-117,34c-354,107-792,204-1177,260
		c-280,41-455,58-822,82l-98,6v859v859h1315h1316L9335,6018z M12166,6053c-3-21-8-78-11-128c-54-790-324-1664-737-2385
		c-103-178-313-503-359-554c-4-5-83,38-176,96c-411,257-916,518-1275,659c-49,19-88,39-88,46s9,35,20,64c35,89,150,477,196,664
		c116,469,188,930,216,1383l12,192h1104h1104L12166,6053z M6090,2208l-1-1533l-111,115c-701,727-1313,1605-1708,2449
		c-44,96-79,179-77,185c9,21,450,132,757,190c360,68,788,118,1058,124l82,2V2208z M7145,3714c481-47,1005-146,1420-270
		c50-14,98-29,108-31c9-3,17-10,17-17c0-23-273-559-378-741c-318-554-681-1055-1140-1573c-206-233-421-452-443-452
		c-19,0-19,38-19,1556v1557l143-7C6931,3732,7063,3722,7145,3714z M3755,2875c336-693,751-1331,1275-1960c71-85,127-155,124-155
		c-16,0-237,56-352,89c-958,278-1800,779-2516,1500l-139,139l84,55c327,212,860,485,1269,650l85,34l24-51
		C3623,3148,3688,3013,3755,2875z M9467,3123c315-134,828-403,1102-580l84-55l-144-145c-636-640-1384-1112-2223-1402
		c-197-68-536-166-536-154c0,2,53,68,118,146c537,643,997,1359,1322,2056c52,111,100,201,106,201C9303,3190,9380,3160,9467,3123z"/>
</g>
</svg>
